<?xml version="1.0" encoding="UTF-8"?>
<svg width="20px" height="20px" viewBox="0 0 20 20" version="1.1" xmlns="http://www.w3.org/2000/svg" xmlns:xlink="http://www.w3.org/1999/xlink">
    <!-- Generator: Sketch 46.2 (44496) - http://www.bohemiancoding.com/sketch -->
    <title>american-express</title>
    <desc>Created with Sketch.</desc>
    <defs>
        <radialGradient cx="17.5414669%" cy="17.4678799%" fx="17.5414669%" fy="17.4678799%" r="93.2921368%" gradientTransform="translate(0.175415,0.174679),scale(1.000000,0.998592),translate(-0.175415,-0.174679)" id="radialGradient-1">
            <stop stop-color="#9DD5F6" offset="0%"></stop>
            <stop stop-color="#98D3F5" offset="7.11%"></stop>
            <stop stop-color="#89CEF3" offset="15.75%"></stop>
            <stop stop-color="#70C6EF" offset="25.16%"></stop>
            <stop stop-color="#4EBBEA" offset="35.14%"></stop>
            <stop stop-color="#23ADE3" offset="45.46%"></stop>
            <stop stop-color="#0DA6E0" offset="50%"></stop>
            <stop stop-color="#2E77BC" offset="100%"></stop>
        </radialGradient>
    </defs>
    <g id="Symbols" stroke="none" stroke-width="1" fill="none" fill-rule="evenodd">
        <g id="footer" transform="translate(-633.000000, -81.000000)" fill-rule="nonzero">
            <g id="Pay-systems" transform="translate(633.000000, 80.000000)">
                <g id="american-express" transform="translate(0.000000, 1.000000)">
                    <path d="M19.8521127,0 L0,0 L0,20 L19.8521127,20 L19.8521127,13.3992933 C19.9295775,13.2862191 19.971831,13.1378092 19.971831,12.9611307 C19.971831,12.7561837 19.9295775,12.6289753 19.8521127,12.5229682" id="Shape" fill="url(#radialGradient-1)"></path>
                    <path d="M1.78873239,8.65017668 L1.4084507,7.71731449 L1.02816901,8.65017668 L1.78873239,8.65017668 Z M10.2042254,8.28268551 C10.1267606,8.33215548 10.0352113,8.33215548 9.92957746,8.33215548 L9.25352113,8.33215548 L9.25352113,7.80918728 L9.94366197,7.80918728 C10.0422535,7.80918728 10.1408451,7.81625442 10.2112676,7.85159011 C10.2816901,7.8869258 10.3309859,7.95759717 10.3309859,8.0565371 C10.3169014,8.16254417 10.2746479,8.24028269 10.2042254,8.28268551 Z M15.0422535,8.65017668 L14.6549296,7.71731449 L14.2676056,8.65017668 L15.0422535,8.65017668 Z M6.02816901,9.66784452 L5.45774648,9.66784452 L5.45774648,7.83038869 L4.64788732,9.66784452 L4.15492958,9.66784452 L3.34507042,7.83038869 L3.34507042,9.66784452 L2.20422535,9.66784452 L1.99295775,9.14487633 L0.830985915,9.14487633 L0.612676056,9.66784452 L0.00704225352,9.66784452 L1.00704225,7.32155477 L1.83802817,7.32155477 L2.78169014,9.54063604 L2.78169014,7.32155477 L3.69014085,7.32155477 L4.42253521,8.91166078 L5.0915493,7.32155477 L6.02112676,7.32155477 L6.02816901,9.66784452 L6.02816901,9.66784452 Z M8.3028169,9.66784452 L6.44366197,9.66784452 L6.44366197,7.32155477 L8.30985915,7.32155477 L8.30985915,7.80918728 L7,7.80918728 L7,8.23321555 L8.27464789,8.23321555 L8.27464789,8.71378092 L7,8.71378092 L7,9.18021201 L8.3028169,9.18021201 L8.3028169,9.66784452 Z M10.9366197,7.95053004 C10.9366197,8.32508834 10.6901408,8.51590106 10.5422535,8.57243816 C10.6619718,8.62190813 10.7676056,8.69964664 10.8169014,8.77031802 C10.8943662,8.88339223 10.9084507,8.98939929 10.9084507,9.20141343 L10.9084507,9.66077739 L10.3450704,9.66077739 L10.3450704,9.3639576 C10.3450704,9.22261484 10.3591549,9.01766784 10.2535211,8.90459364 C10.1690141,8.81978799 10.0492958,8.80565371 9.84507042,8.80565371 L9.24647887,8.80565371 L9.24647887,9.66077739 L8.69014085,9.66077739 L8.69014085,7.31448763 L9.97183099,7.31448763 C10.2535211,7.31448763 10.4647887,7.32155477 10.6478873,7.42756184 C10.8309859,7.54063604 10.9366197,7.68904594 10.9366197,7.95053004 Z M11.8309859,9.66784452 L11.2605634,9.66784452 L11.2605634,7.32155477 L11.8309859,7.32155477 L11.8309859,9.66784452 Z M18.4366197,9.66784452 L17.6478873,9.66784452 L16.5915493,7.90812721 L16.5915493,9.66784452 L15.4577465,9.66784452 L15.2394366,9.14487633 L14.0774648,9.14487633 L13.8661972,9.66784452 L13.2112676,9.66784452 C12.9366197,9.66784452 12.5985915,9.60424028 12.4014085,9.40636042 C12.2042254,9.20848057 12.1056338,8.93992933 12.1056338,8.50883392 C12.1056338,8.16254417 12.1690141,7.84452297 12.4084507,7.59010601 C12.5915493,7.40636042 12.8732394,7.31448763 13.2535211,7.31448763 L13.7957746,7.31448763 L13.7957746,7.81625442 L13.2676056,7.81625442 C13.0633803,7.81625442 12.9507042,7.84452297 12.8380282,7.95759717 C12.7394366,8.0565371 12.6760563,8.24028269 12.6760563,8.48763251 C12.6760563,8.74204947 12.7253521,8.91872792 12.8309859,9.03886926 C12.915493,9.13074205 13.0704225,9.1590106 13.2183099,9.1590106 L13.471831,9.1590106 L14.2605634,7.31448763 L15.0985915,7.31448763 L16.0422535,9.5335689 L16.0422535,7.31448763 L16.8943662,7.31448763 L17.8732394,8.94699647 L17.8732394,7.31448763 L18.443662,7.31448763 L18.443662,9.66784452 L18.4366197,9.66784452 Z M0,10.1272085 L0.950704225,10.1272085 L1.16901408,9.60424028 L1.64788732,9.60424028 L1.85915493,10.1272085 L3.73239437,10.1272085 L3.73239437,9.73144876 L3.90140845,10.1342756 L4.87323944,10.1342756 L5.04225352,9.73144876 L5.04225352,10.1342756 L9.70422535,10.1342756 L9.70422535,9.27915194 L9.79577465,9.27915194 C9.85915493,9.27915194 9.88028169,9.28621908 9.88028169,9.39222615 L9.88028169,10.1342756 L12.2887324,10.1342756 L12.2887324,9.93639576 C12.4859155,10.0424028 12.7887324,10.1342756 13.1830986,10.1342756 L14.1971831,10.1342756 L14.415493,9.61130742 L14.8943662,9.61130742 L15.1056338,10.1342756 L17.0633803,10.1342756 L17.0633803,9.63957597 L17.3591549,10.1342756 L18.9225352,10.1342756 L18.9225352,6.85512367 L17.3732394,6.85512367 L17.3732394,7.24381625 L17.1549296,6.85512367 L15.5633803,6.85512367 L15.5633803,7.24381625 L15.3661972,6.85512367 L13.2183099,6.85512367 C12.8591549,6.85512367 12.5422535,6.90459364 12.2887324,7.0459364 L12.2887324,6.85512367 L10.8028169,6.85512367 L10.8028169,7.0459364 C10.6408451,6.90459364 10.415493,6.85512367 10.1690141,6.85512367 L4.76056338,6.85512367 L4.40140845,7.70318021 L4.02816901,6.85512367 L2.31690141,6.85512367 L2.31690141,7.24381625 L2.13380282,6.85512367 L0.676056338,6.85512367 L0,8.40989399 L0,10.1272085 L0,10.1272085 Z" id="Shape" fill="#FFFFFF"></path>
                    <path d="M19.8521127,11.8515901 L18.8380282,11.8515901 C18.7394366,11.8515901 18.6690141,11.8586572 18.6126761,11.8939929 C18.556338,11.9293286 18.528169,11.9858657 18.528169,12.0636042 C18.528169,12.155477 18.5774648,12.2120141 18.6478873,12.2402827 C18.7042254,12.2614841 18.7676056,12.2685512 18.8661972,12.2685512 L19.1690141,12.2756184 C19.471831,12.2826855 19.6760563,12.3392226 19.8028169,12.4664311 C19.8239437,12.4876325 19.8380282,12.5017668 19.8521127,12.5229682 L19.8521127,11.8515901 Z M19.8521127,13.3992933 C19.7183099,13.5971731 19.4507042,13.6961131 19.0915493,13.6961131 L18.0140845,13.6961131 L18.0140845,13.1943463 L19.084507,13.1943463 C19.1901408,13.1943463 19.2676056,13.180212 19.3098592,13.1378092 C19.3521127,13.1024735 19.3732394,13.0459364 19.3732394,12.9823322 C19.3732394,12.9116608 19.3450704,12.8621908 19.3028169,12.8268551 C19.2605634,12.7915194 19.2042254,12.7773852 19.1056338,12.7773852 C18.584507,12.7561837 17.9295775,12.7915194 17.9295775,12.04947 C17.9295775,11.7102473 18.1478873,11.3498233 18.7323944,11.3498233 L19.8450704,11.3498233 L19.8450704,10.8833922 L18.8098592,10.8833922 C18.5,10.8833922 18.2746479,10.9611307 18.1126761,11.0742049 L18.1126761,10.8833922 L16.584507,10.8833922 C16.3380282,10.8833922 16.056338,10.9469965 15.915493,11.0742049 L15.915493,10.8833922 L13.1901408,10.8833922 L13.1901408,11.0742049 C12.971831,10.9187279 12.6056338,10.8833922 12.4366197,10.8833922 L10.6338028,10.8833922 L10.6338028,11.0742049 C10.4647887,10.9045936 10.0774648,10.8833922 9.84507042,10.8833922 L7.83098592,10.8833922 L7.37323944,11.385159 L6.94366197,10.8833922 L3.95070423,10.8833922 L3.95070423,14.155477 L6.90140845,14.155477 L7.37323944,13.6466431 L7.82394366,14.155477 L9.64084507,14.155477 L9.64084507,13.385159 L9.81690141,13.385159 C10.056338,13.3922261 10.3450704,13.3780919 10.5915493,13.2720848 L10.5915493,14.155477 L12.0915493,14.155477 L12.0915493,13.3003534 L12.1619718,13.3003534 C12.2535211,13.3003534 12.2605634,13.3074205 12.2605634,13.3992933 L12.2605634,14.155477 L16.8309859,14.155477 C17.1197183,14.155477 17.4225352,14.0777385 17.5915493,13.9434629 L17.5915493,14.155477 L19.0352113,14.155477 C19.3380282,14.155477 19.6267606,14.1130742 19.8521127,14.0070671 L19.8521127,13.3992933 L19.8521127,13.3992933 Z M17.6267606,12.459364 C17.7323944,12.5724382 17.7957746,12.7137809 17.7957746,12.9540636 C17.7957746,13.4558304 17.4788732,13.6961131 16.9225352,13.6961131 L15.8380282,13.6961131 L15.8380282,13.1943463 L16.9225352,13.1943463 C17.028169,13.1943463 17.1056338,13.180212 17.1478873,13.1378092 C17.1830986,13.1024735 17.2112676,13.0459364 17.2112676,12.9823322 C17.2112676,12.9116608 17.1830986,12.8621908 17.1408451,12.8268551 C17.0985915,12.7915194 17.0422535,12.7773852 16.943662,12.7773852 C16.4225352,12.7561837 15.7676056,12.7915194 15.7676056,12.04947 C15.7676056,11.7102473 15.9788732,11.3498233 16.5633803,11.3498233 L17.6830986,11.3498233 L17.6830986,11.8515901 L16.6619718,11.8515901 C16.5633803,11.8515901 16.4929577,11.8586572 16.4366197,11.8939929 C16.3732394,11.9293286 16.3521127,11.9858657 16.3521127,12.0636042 C16.3521127,12.155477 16.4014085,12.2120141 16.471831,12.2402827 C16.528169,12.2614841 16.5915493,12.2685512 16.6901408,12.2685512 L16.9929577,12.2756184 C17.2957746,12.2826855 17.5,12.3321555 17.6267606,12.459364 Z M12.5915493,12.3180212 C12.5140845,12.360424 12.4225352,12.3674912 12.3169014,12.3674912 L11.6408451,12.3674912 L11.6408451,11.844523 L12.3309859,11.844523 C12.4295775,11.844523 12.528169,11.844523 12.5985915,11.8869258 C12.6690141,11.9222615 12.7112676,12 12.7112676,12.0989399 C12.7112676,12.1908127 12.6690141,12.2756184 12.5915493,12.3180212 Z M12.9295775,12.6077739 C13.056338,12.6572438 13.1549296,12.7349823 13.2042254,12.8056537 C13.2816901,12.9187279 13.2957746,13.024735 13.2957746,13.2367491 L13.2957746,13.7031802 L12.7323944,13.7031802 L12.7323944,13.4134276 C12.7323944,13.2720848 12.7464789,13.0671378 12.6408451,12.9540636 C12.556338,12.869258 12.4366197,12.8480565 12.2323944,12.8480565 L11.6338028,12.8480565 L11.6338028,13.7031802 L11.0704225,13.7031802 L11.0704225,11.3568905 L12.3591549,11.3568905 C12.6408451,11.3568905 12.8450704,11.3710247 13.028169,11.4699647 C13.2042254,11.5759717 13.3169014,11.7243816 13.3169014,11.9929329 C13.3239437,12.360424 13.0774648,12.5512367 12.9295775,12.6077739 Z M13.6338028,11.3568905 L15.4929577,11.3568905 L15.4929577,11.844523 L14.1830986,11.844523 L14.1830986,12.2685512 L15.4577465,12.2685512 L15.4577465,12.7491166 L14.1830986,12.7491166 L14.1830986,13.2155477 L15.4929577,13.2155477 L15.4929577,13.7031802 L13.6338028,13.7031802 L13.6338028,11.3568905 Z M9.87323944,12.4381625 L9.15492958,12.4381625 L9.15492958,11.844523 L9.88028169,11.844523 C10.084507,11.844523 10.2183099,11.9293286 10.2183099,12.1342756 C10.2183099,12.3321555 10.084507,12.4381625 9.87323944,12.4381625 Z M8.5915493,13.4840989 L7.73239437,12.5300353 L8.5915493,11.6042403 L8.5915493,13.4840989 Z M6.38028169,13.2084806 L5.00704225,13.2084806 L5.00704225,12.7420495 L6.23239437,12.7420495 L6.23239437,12.2614841 L5.00704225,12.2614841 L5.00704225,11.8374558 L6.4084507,11.8374558 L7.02112676,12.5229682 L6.38028169,13.2084806 Z M10.8169014,12.1272085 C10.8169014,12.7773852 10.3309859,12.9116608 9.84507042,12.9116608 L9.14788732,12.9116608 L9.14788732,13.6961131 L8.06338028,13.6961131 L7.37323944,12.9187279 L6.66197183,13.6961131 L4.45070423,13.6961131 L4.45070423,11.3498233 L6.6971831,11.3498233 L7.38732394,12.1201413 L8.09859155,11.3498233 L9.88028169,11.3498233 C10.3169014,11.3568905 10.8169014,11.4770318 10.8169014,12.1272085 Z" id="Shape" fill="#FFFFFF"></path>
                </g>
            </g>
        </g>
    </g>
</svg>