<?xml version="1.0" encoding="UTF-8"?>
<svg width="14px" height="16px" viewBox="0 0 14 16" version="1.1" xmlns="http://www.w3.org/2000/svg" xmlns:xlink="http://www.w3.org/1999/xlink">
    <!-- Generator: Sketch 46.2 (44496) - http://www.bohemiancoding.com/sketch -->
    <title>calendar</title>
    <desc>Created with Sketch.</desc>
    <defs></defs>
    <g id="Page-1" stroke="none" stroke-width="1" fill="none" fill-rule="evenodd">
        <g id="Blog" transform="translate(-178.000000, -1291.000000)" fill-rule="nonzero" fill="#000000">
            <g id="Article-Copy" transform="translate(150.000000, 897.000000)">
                <g id="calendar" transform="translate(28.000000, 394.000000)">
                    <path d="M13,1 L11,1 C11,0.45 10.55,0 10,0 C9.45,0 9,0.45 9,1 L5,1 C5,0.45 4.55,0 4,0 C3.45,0 3,0.45 3,1 L1,1 C0.45,1 0,1.45 0,2 L0,15 C0,15.55 0.45,16 1,16 L13,16 C13.55,16 14,15.55 14,15 L14,2 C14,1.45 13.55,1 13,1 Z M3,3 C3,3.55 3.45,4 4,4 C4.55,4 5,3.55 5,3 L9,3 C9,3.55 9.45,4 10,4 C10.55,4 11,3.55 11,3 L12,3 L12,5 L2,5 L2,3 L3,3 Z M2,14 L2,7 L12,7 L12,14 L2,14 Z" id="Shape"></path>
                </g>
            </g>
        </g>
    </g>
</svg>