<?xml version="1.0" encoding="UTF-8"?>
<svg width="20px" height="20px" viewBox="0 0 20 20" version="1.1" xmlns="http://www.w3.org/2000/svg" xmlns:xlink="http://www.w3.org/1999/xlink">
    <!-- Generator: Sketch 46.2 (44496) - http://www.bohemiancoding.com/sketch -->
    <title>Combined Shape</title>
    <desc>Created with Sketch.</desc>
    <defs></defs>
    <g id="Symbols" stroke="none" stroke-width="1" fill="none" fill-rule="evenodd">
        <g id="contact-form" transform="translate(-852.000000, -107.000000)" fill="#000000">
            <g id="Coctact-info" transform="translate(852.000000, 4.000000)">
                <path d="M8.38304209,114.6365 C8.87176492,115.109267 11.08755,117.2104 12.0545118,117.397334 L14.2923664,115.155557 C14.2923664,115.155557 15.1722066,114.312496 16.1094278,115.174718 L19.7626775,118.83437 C19.7626775,118.83437 20.3556133,119.926517 19.6670427,120.597134 L17.8882352,122.379058 C17.8882352,122.379058 14.7514135,124.390909 9.72102246,121.171948 C9.72102246,121.171948 7.460623,119.984985 5.30669137,117.842812 C3.07138972,115.648855 1.84071413,113.296991 1.84071413,113.296991 C-1.39174245,108.257784 0.616588561,105.115465 0.616588561,105.115465 L2.39539602,103.333541 C3.06483969,102.643763 4.15507653,103.237738 4.15507653,103.237738 L7.82745323,106.89739 C8.68816651,107.836254 7.84658019,108.717636 7.84658019,108.717636 L5.60872564,110.959412 C5.81218365,111.927531 7.90934372,114.145275 8.38304209,114.6365 Z" id="Combined-Shape"></path>
            </g>
        </g>
    </g>
</svg>