<?xml version="1.0" encoding="UTF-8"?>
<svg width="11px" height="20px" viewBox="0 0 11 20" version="1.1" xmlns="http://www.w3.org/2000/svg" xmlns:xlink="http://www.w3.org/1999/xlink">
    <!-- Generator: Sketch 46.2 (44496) - http://www.bohemiancoding.com/sketch -->
    <title>icon facebook</title>
    <desc>Created with Sketch.</desc>
    <defs></defs>
    <g id="Page-1" stroke="none" stroke-width="1" fill="none" fill-rule="evenodd">
        <g id="About-Artist" transform="translate(-1279.000000, -263.000000)" fill-rule="nonzero" fill="#000000">
            <g id="icons-social" transform="translate(1234.000000, 263.000000)">
                <g id="icon-facebook" transform="translate(45.000000, 0.000000)">
                    <path d="M10.5875,0 L6.9575,0 C6.9575,0 6.93,0 6.93,0 C3.2725,0 2.805,2.58333333 2.7775,4.86111111 C2.7775,4.88888889 2.7775,4.91666667 2.7775,4.91666667 L2.7775,6.5 L0.275,6.5 C0.11,6.5 0,6.61111111 0,6.77777778 L0,10.6944444 C0,10.8611111 0.11,10.9722222 0.275,10.9722222 L2.7775,10.9722222 L2.7775,19.5555556 C2.7775,19.7222222 2.8875,19.8333333 3.0525,19.8333333 L6.71,19.8333333 C6.875,19.8333333 6.985,19.7222222 6.985,19.5555556 L6.985,10.9722222 L10.5875,10.9722222 C10.7525,10.9722222 10.8625,10.8611111 10.8625,10.6944444 L10.8625,6.77777778 C10.8625,6.61111111 10.7525,6.5 10.5875,6.5 L6.71,6.5 L6.71,4.38888889 L10.5875,4.38888889 C10.7525,4.38888889 10.8625,4.27777778 10.8625,4.11111111 L10.8625,0.277777778 C10.8625,0.111111111 10.7525,0 10.5875,0 Z" id="Shape"></path>
                </g>
            </g>
        </g>
    </g>
</svg>