<?xml version="1.0" encoding="UTF-8"?>
<svg width="14px" height="20px" viewBox="0 0 14 20" version="1.1" xmlns="http://www.w3.org/2000/svg" xmlns:xlink="http://www.w3.org/1999/xlink">
    <!-- Generator: Sketch 46.2 (44496) - http://www.bohemiancoding.com/sketch -->
    <title>Fill 1 Copy</title>
    <desc>Created with Sketch.</desc>
    <defs></defs>
    <g id="Symbols" stroke="none" stroke-width="1" fill="none" fill-rule="evenodd">
        <g id="contact-form" transform="translate(-855.000000, -62.000000)" fill="#000000">
            <g id="Coctact-info" transform="translate(852.000000, 4.000000)">
                <path d="M10,69.0127827 C7.72965049,69.0127827 5.88898148,67.1813176 5.88898148,64.9223206 C5.88898148,62.6633235 7.72965049,60.8318584 10,60.8318584 C12.2703495,60.8318584 14.1110185,62.6633235 14.1110185,64.9223206 C14.1110185,67.1813176 12.2703495,69.0127827 10,69.0127827 M16.9571083,64.9223206 C16.9571083,61.0993117 13.8422212,58 10,58 C6.15777885,58 3.04289174,61.0993117 3.04289174,64.9223206 C3.04289174,64.9223206 2.05466613,69.1504425 9.56518073,77.7443461 C9.56518073,77.7443461 9.82211939,78 10,78 C10.1778806,78 10.4348193,77.7443461 10.4348193,77.7443461 C17.9453339,69.1504425 16.9571083,64.9223206 16.9571083,64.9223206" id="Fill-1-Copy"></path>
            </g>
        </g>
    </g>
</svg>