<?xml version="1.0" encoding="UTF-8"?>
<svg width="57px" height="28px" viewBox="0 0 57 28" version="1.1" xmlns="http://www.w3.org/2000/svg" xmlns:xlink="http://www.w3.org/1999/xlink">
    <!-- Generator: Sketch 46.2 (44496) - http://www.bohemiancoding.com/sketch -->
    <title>mail_icon</title>
    <desc>Created with Sketch.</desc>
    <defs></defs>
    <g id="Page-1" stroke="none" stroke-width="1" fill="none" fill-rule="evenodd">
        <g id="Home-page" transform="translate(-1205.000000, -571.000000)" fill="#FFFFFF">
            <g id="Top-section">
                <g id="contact-us" transform="translate(1191.000000, 560.000000)">
                    <g id="mail_icon" transform="translate(14.000000, 12.000000)">
                        <path d="M37.4577208,22.9349562 L37.4577208,22.93757 C42.3854036,22.93757 47.313209,22.9279863 52.240769,22.9501408 C52.818345,22.9527545 53.0030564,22.8097458 53.0008472,22.1996248 C52.9783873,16.1035186 52.9863648,10.0072878 52.9850148,3.91105705 C52.9847693,3.042674 52.9824374,3.04080704 52.1056413,3.04030919 C42.3321379,3.03607742 32.5586346,3.03856669 22.785254,3.01442074 C22.1550261,3.01280271 22.0051705,3.1937729 22.0076252,3.8173359 C22.0322943,9.9548886 22.0330306,16.0925658 22.011798,22.2302429 C22.0098343,22.8205741 22.1902501,22.9482738 22.7361613,22.946158 C27.6432251,22.9269906 32.5505343,22.9349562 37.4577208,22.9349562 L37.4577208,22.9349562 Z M37.5425285,0.00936979664 C42.6951787,0.00936979664 47.8477061,0.00700498683 53.0003563,0.0106144334 C54.7987457,0.0119835338 55.9913308,1.22264169 55.9930491,3.05661393 C55.9995539,9.65045045 56.0075314,16.2444114 55.9856852,22.838248 C55.9837215,23.3992057 55.8689672,24.0121893 55.6250991,24.5095462 C55.1029979,25.5747063 54.15379,26.0008699 52.9960607,25.9999987 C47.9251499,25.9962648 42.8543619,25.9999987 37.7834511,25.9992519 C32.5695577,25.9986296 27.3555417,25.9975094 22.1416483,25.9931532 C20.1371922,25.9916596 19.0060957,24.863023 19.0043774,22.8457158 C18.9988545,16.2312183 18.9989772,9.61672079 19.0024137,3.00209884 C19.0033956,1.18555152 20.1732753,0.00289768559 21.9622144,0.0019019762 C27.1557342,-0.001458543 32.3491314,0.000657339458 37.5425285,0.000657339458 L37.5425285,0.00936979664 Z" id="Fill-1" stroke="#007A77" stroke-width="1.2"></path>
                        <path d="M8.00046735,2.996191 C5.7788495,2.996191 3.55735987,2.99324099 1.33587024,2.99823332 C0.773894649,2.9994814 0.326929807,2.84233655 0.0942157536,2.36137121 C-0.23337896,1.68457048 0.327186241,1.01332939 1.25150338,1.0082236 C3.49427705,0.995856244 5.73730716,1.0010755 7.98020905,1.00118896 C10.2231109,1.00118896 12.4660128,0.999373565 14.7089147,1.0073159 C15.5555323,1.01037938 16.063272,1.45515035 15.9936501,2.10211058 C15.9336445,2.66045699 15.4556512,2.99437561 14.6651927,2.99653139 C12.4435748,3.0027718 10.2220852,2.99868716 8.00046735,2.99868716 L8.00046735,2.996191 Z" id="Fill-4"></path>
                        <path d="M11.0461811,8.0017562 C12.2556749,8.00209653 13.4651688,7.99642434 14.6746626,8.00402507 C15.5182378,8.00924349 16.0043032,8.38519625 15.9999713,9.00528009 C15.9958942,9.62320849 15.5093191,9.9946235 14.662304,9.9964386 C12.222039,10.0015436 9.78177395,10.0010898 7.34150895,9.99553105 C6.52201412,9.99371595 5.99632449,9.59042323 6.00001935,8.99370882 C6.00371421,8.39699441 6.52762011,8.00674772 7.35399503,8.00300408 C8.58463878,7.99721844 9.81540993,8.00152931 11.0461811,8.0017562" id="Fill-6"></path>
                        <path d="M12.5106946,16.9934861 C12.0317162,16.9934861 11.5525168,17.0016207 11.0737595,16.9914524 C10.4223357,16.9774429 10.0124461,16.6035916 10.0002865,16.0302173 C9.98746362,15.4342471 10.4059755,15.0229993 11.0796183,15.0126051 C12.0374644,14.9976918 12.9958633,14.9943023 13.9534883,15.0118143 C14.5955161,15.0235642 15.0024211,15.4333432 14.9999892,16.0080732 C14.9975572,16.5835941 14.5831354,16.9798155 13.9477402,16.9945029 C13.4688724,17.005462 12.9896729,16.9966495 12.5106946,16.9966495 L12.5106946,16.9934861 Z" id="Fill-8"></path>
                        <path d="M50,7.53359077 C49.7201893,7.97071759 49.5533105,8.43841898 49.2319644,8.7011812 C45.5622286,11.7015829 41.871971,14.6749919 38.1786413,17.6437956 C37.57687,18.1274878 36.9712892,18.1172537 36.3722214,17.6211525 C32.7523773,14.6236931 29.1378173,11.6193257 25.5311219,8.60498004 C24.9053879,8.08214208 24.8327625,7.16452115 25.3121396,6.54855228 C25.8023307,5.9183835 26.6146052,5.80414462 27.28679,6.34719506 C28.8066403,7.57465536 30.3012991,8.83588841 31.805543,10.0840729 C33.486005,11.478478 35.1733485,12.8640562 36.8396786,14.2763711 C37.1916233,14.5745691 37.4281783,14.5709872 37.7852841,14.2795693 C40.9741681,11.6765092 44.1764466,9.09148671 47.3783564,6.50556878 C48.0872841,5.93309511 48.8008813,5.87079463 49.3260948,6.40399468 C49.5980409,6.68031717 49.7437833,7.09134687 50,7.53359077" id="Fill-10" stroke="#007A77" stroke-width="1.2"></path>
                    </g>
                </g>
            </g>
        </g>
    </g>
</svg>