<?xml version="1.0" encoding="UTF-8"?>
<svg width="26px" height="20px" viewBox="0 0 26 20" version="1.1" xmlns="http://www.w3.org/2000/svg" xmlns:xlink="http://www.w3.org/1999/xlink">
    <!-- Generator: Sketch 46.2 (44496) - http://www.bohemiancoding.com/sketch -->
    <title>Mastercard-logo</title>
    <desc>Created with Sketch.</desc>
    <defs></defs>
    <g id="Symbols" stroke="none" stroke-width="1" fill="none" fill-rule="evenodd">
        <g id="footer" transform="translate(-664.000000, -81.000000)" fill-rule="nonzero">
            <g id="Pay-systems" transform="translate(633.000000, 80.000000)">
                <g id="Mastercard-logo" transform="translate(31.000000, 0.000000)">
                    <path d="M24.9056894,18.047548 L24.9056894,17.9971112 L24.9522088,17.9971112 C24.962492,17.9971112 24.9713062,17.9995596 24.977672,18.003477 C24.9835482,18.0073944 24.9869759,18.0142499 24.9869759,18.0225744 C24.9869759,18.0308989 24.9835482,18.0372647 24.977672,18.0411822 C24.9713062,18.0455893 24.962492,18.047548 24.9522088,18.047548 L24.9056894,18.047548 Z M24.9526985,18.0828047 C24.9766927,18.0828047 24.9953004,18.0774183 25.0085217,18.0666454 C25.021743,18.0558725 25.0281088,18.0411822 25.0281088,18.0225744 C25.0281088,18.0069047 25.023212,17.9941731 25.0124391,17.9838899 C25.0021559,17.9740963 24.9874656,17.9677305 24.9678785,17.9652821 L25.0295779,17.8942789 L24.9815895,17.8942789 L24.9242972,17.9647925 L24.9056894,17.9647925 L24.9056894,17.8942789 L24.8655359,17.8942789 L24.8655359,18.0828047 L24.9526985,18.0828047 Z M24.9404565,17.8291518 C24.962492,17.8291518 24.9830585,17.8335589 25.0016662,17.8418834 C25.0207637,17.8502079 25.0374127,17.8614705 25.0516133,17.8756711 C25.065814,17.8898718 25.0770766,17.9065208 25.0854011,17.9261079 C25.0932359,17.9452054 25.097643,17.9657718 25.097643,17.9878073 C25.097643,18.0098428 25.0932359,18.0304092 25.0854011,18.0495067 C25.0770766,18.0686041 25.065814,18.0857428 25.0516133,18.0999435 C25.0374127,18.1141441 25.0207637,18.1254067 25.0016662,18.1337312 C24.9830585,18.141566 24.962492,18.1454835 24.9404565,18.1454835 C24.9184211,18.1454835 24.8973649,18.141566 24.8782675,18.1337312 C24.8586804,18.1254067 24.8415417,18.1141441 24.827341,18.0999435 C24.8131404,18.0857428 24.8018778,18.0686041 24.794043,18.0495067 C24.7857184,18.0304092 24.781801,18.0098428 24.781801,17.9878073 C24.781801,17.9657718 24.7857184,17.9452054 24.794043,17.9261079 C24.8018778,17.9065208 24.8131404,17.8898718 24.827341,17.8756711 C24.8415417,17.8614705 24.8586804,17.8502079 24.8782675,17.8418834 C24.8973649,17.8335589 24.9184211,17.8291518 24.9404565,17.8291518 L24.9404565,17.8291518 Z M24.9404565,18.1910235 C24.9693475,18.1910235 24.9957901,18.185637 25.0212533,18.1748641 C25.0462269,18.1645809 25.0677727,18.1498906 25.0868701,18.1312828 C25.1054779,18.1131648 25.1201682,18.0916189 25.1309411,18.0666454 C25.141714,18.0421615 25.1471005,18.0157189 25.1471005,17.9878073 C25.1471005,17.9598957 25.141714,17.9334531 25.1309411,17.9089692 C25.1201682,17.8844853 25.1054779,17.8629395 25.0868701,17.8443318 C25.0677727,17.8262137 25.0462269,17.8115234 25.0212533,17.8007505 C24.9957901,17.7899776 24.9693475,17.7845911 24.9404565,17.7845911 C24.9110759,17.7845911 24.8841436,17.7899776 24.8586804,17.8007505 C24.8332172,17.8115234 24.8111817,17.8262137 24.7925739,17.8443318 C24.7739662,17.8629395 24.7592758,17.8844853 24.7485029,17.9089692 C24.73773,17.9334531 24.7323436,17.9598957 24.7323436,17.9878073 C24.7323436,18.0157189 24.73773,18.0421615 24.7485029,18.0666454 C24.7592758,18.0916189 24.7739662,18.1131648 24.7925739,18.1312828 C24.8111817,18.1498906 24.8332172,18.1645809 24.8586804,18.1748641 C24.8841436,18.185637 24.9110759,18.1910235 24.9404565,18.1910235 L24.9404565,18.1910235 Z M5.86212974,18.9172153 C5.86212974,19.2766386 6.09766464,19.5719142 6.48255119,19.5719142 C6.85029903,19.5719142 7.09856554,19.2893702 7.09856554,18.9172153 C7.09856554,18.5450603 6.85029903,18.2625164 6.48255119,18.2625164 C6.09766464,18.2625164 5.86212974,18.557792 5.86212974,18.9172153 L5.86212974,18.9172153 Z M7.51772952,18.9172153 L7.51772952,19.939662 L7.07310231,19.939662 L7.07310231,19.6913955 C6.93207518,19.8755142 6.71808609,19.9910781 6.42721763,19.9910781 C5.85380523,19.9910781 5.40428124,19.5415541 5.40428124,18.9172153 C5.40428124,18.2923867 5.85380523,17.8433524 6.42721763,17.8433524 C6.71808609,17.8433524 6.93207518,17.9589163 7.07310231,18.1430351 L7.07310231,17.8947686 L7.51772952,17.8947686 L7.51772952,18.9172153 Z M22.5429953,18.9172153 C22.5429953,19.2766386 22.7785302,19.5719142 23.1634167,19.5719142 C23.5316542,19.5719142 23.7794311,19.2893702 23.7794311,18.9172153 C23.7794311,18.5450603 23.5316542,18.2625164 23.1634167,18.2625164 C22.7785302,18.2625164 22.5429953,18.557792 22.5429953,18.9172153 L22.5429953,18.9172153 Z M24.1990847,18.9172153 L24.1990847,20.7608512 L23.7539679,20.7608512 L23.7539679,19.6913955 C23.6129407,19.8755142 23.3989516,19.9910781 23.1080832,19.9910781 C22.5346708,19.9910781 22.0851468,19.5415541 22.0851468,18.9172153 C22.0851468,18.2923867 22.5346708,17.8433524 23.1080832,17.8433524 C23.3989516,17.8433524 23.6129407,17.9589163 23.7539679,18.1430351 L23.7539679,17.8947686 L24.1990847,17.8947686 L24.1990847,18.9172153 Z M13.0368851,19.5929703 C13.3233465,19.5929703 13.5074652,19.4132586 13.5544743,19.0969269 L12.493343,19.0969269 C12.5408418,19.3922025 12.7200637,19.5929703 13.0368851,19.5929703 L13.0368851,19.5929703 Z M13.0456993,19.9910781 C12.446334,19.9910781 12.02717,19.5547754 12.02717,18.9172153 C12.02717,18.2669235 12.4634727,17.8433524 13.0755696,17.8433524 C13.3835768,17.8433524 13.6656311,17.9202318 13.9138976,18.1298138 L13.6959911,18.4593668 C13.524604,18.3227467 13.3062078,18.2453777 13.1010329,18.2453777 C12.8145715,18.2453777 12.5535734,18.3780803 12.4894256,18.7463178 L14.0079157,18.7463178 C14.0123228,18.8016514 14.0167299,18.8574746 14.0167299,18.9172153 C14.0123228,19.5547754 13.618622,19.9910781 13.0456993,19.9910781 L13.0456993,19.9910781 Z M18.4145239,18.9172153 C18.4145239,19.2766386 18.6500588,19.5719142 19.0349454,19.5719142 C19.4026932,19.5719142 19.6509597,19.2893702 19.6509597,18.9172153 C19.6509597,18.5450603 19.4026932,18.2625164 19.0349454,18.2625164 C18.6500588,18.2625164 18.4145239,18.557792 18.4145239,18.9172153 L18.4145239,18.9172153 Z M20.0701237,18.9172153 L20.0701237,19.939662 L19.6254965,19.939662 L19.6254965,19.6913955 C19.4839797,19.8755142 19.2704803,19.9910781 18.9796118,19.9910781 C18.4061994,19.9910781 17.9566754,19.5415541 17.9566754,18.9172153 C17.9566754,18.2923867 18.4061994,17.8433524 18.9796118,17.8433524 C19.2704803,17.8433524 19.4839797,17.9589163 19.6254965,18.1430351 L19.6254965,17.8947686 L20.0701237,17.8947686 L20.0701237,18.9172153 Z M15.9034575,18.9172153 C15.9034575,18.2967938 16.3353531,17.8433524 16.994459,17.8433524 C17.3024662,17.8433524 17.5076411,17.9119073 17.7299547,18.0872118 L17.5164553,18.4466352 C17.3494753,18.3266642 17.1741707,18.2625164 16.9812377,18.2625164 C16.6262215,18.2669235 16.3652234,18.5235145 16.3652234,18.9172153 C16.3652234,19.310916 16.6262215,19.5675071 16.9812377,19.5719142 C17.1741707,19.5719142 17.3494753,19.5077664 17.5164553,19.3877954 L17.7299547,19.7472187 C17.5076411,19.9225233 17.3024662,19.9910781 16.994459,19.9910781 C16.3353531,19.9910781 15.9034575,19.5376367 15.9034575,18.9172153 L15.9034575,18.9172153 Z M21.6361125,19.9910781 C21.3795214,19.9910781 21.2125414,19.8711071 21.0969775,19.6913955 L21.0969775,19.939662 L20.6562677,19.939662 L20.6562677,17.8947686 L21.1013846,17.8947686 L21.1013846,19.0411037 C21.1013846,19.3794709 21.2468188,19.5675071 21.5376873,19.5675071 C21.627788,19.5675071 21.721806,19.5547754 21.8158241,19.5160909 L21.9529338,19.9352549 C21.8545087,19.9739394 21.7262131,19.9910781 21.6361125,19.9910781 L21.6361125,19.9910781 Z M9.71687137,19.777089 C9.50288228,19.9181162 9.2080964,19.9910781 8.88295051,19.9910781 C8.36487167,19.9910781 8.03140126,19.7428116 8.03140126,19.3363793 C8.03140126,19.0029089 8.27966778,18.7972443 8.73702661,18.7330965 L8.94709827,18.7032262 C9.19095769,18.6689488 9.30603191,18.604801 9.30603191,18.4892371 C9.30603191,18.3310713 9.14345897,18.2409706 8.83985889,18.2409706 C8.53185171,18.2409706 8.30953811,18.3393958 8.15969678,18.4549597 L7.95011479,18.1087577 C8.19397421,17.929046 8.50198138,17.8433524 8.83545179,17.8433524 C9.42600291,17.8433524 9.76828751,18.1214893 9.76828751,18.5107829 C9.76828751,18.8702062 9.49896486,19.0582424 9.05384798,19.1223902 L8.84426599,19.1527502 C8.65182271,19.1782134 8.49757429,19.2164083 8.49757429,19.353518 C8.49757429,19.5033593 8.64300852,19.5929703 8.88686793,19.5929703 C9.14786607,19.5929703 9.40053968,19.4945451 9.5244281,19.4176657 L9.71687137,19.777089 L9.71687137,19.777089 Z M15.4539335,19.9910781 C15.1973424,19.9910781 15.0303624,19.8711071 14.9152882,19.6913955 L14.9152882,19.939662 L14.4745784,19.939662 L14.4745784,17.8947686 L14.9192056,17.8947686 L14.9192056,19.0411037 C14.9192056,19.3794709 15.0646398,19.5675071 15.3555083,19.5675071 C15.445609,19.5675071 15.539627,19.5547754 15.6336451,19.5160909 L15.7707548,19.9352549 C15.6723297,19.9739394 15.5440341,19.9910781 15.4539335,19.9910781 L15.4539335,19.9910781 Z M11.6594222,19.939662 L10.932251,19.939662 L10.932251,20.5600834 L10.4827271,20.5600834 L10.4827271,19.939662 L10.0679702,19.939662 L10.0679702,19.5332296 L10.4827271,19.5332296 L10.4827271,18.6003939 C10.4827271,18.1258964 10.6668458,17.8433524 11.1927595,17.8433524 C11.3856924,17.8433524 11.608006,17.9030931 11.7490332,18.0015183 L11.6207377,18.3824874 C11.488035,18.305608 11.3426008,18.2669235 11.2270369,18.2669235 C11.0047233,18.2669235 10.932251,18.4040332 10.932251,18.6092081 L10.932251,19.5332296 L11.6594222,19.5332296 L11.6594222,19.939662 L11.6594222,19.939662 Z M5.01107017,17.8947686 L5.01107017,19.1782134 C5.01107017,19.6615251 4.703063,19.986671 4.20652997,19.9910781 C3.94553184,19.9954852 3.67620919,19.9141988 3.48768333,19.6272477 C3.3466562,19.8539684 3.1243426,19.9910781 2.81192832,19.9910781 C2.59353214,19.9910781 2.38003273,19.9269304 2.21305269,19.6874781 L2.21305269,19.939662 L1.7679358,19.939662 L1.7679358,17.8947686 L2.21697011,17.8947686 L2.21697011,19.0283721 C2.21697011,19.3833883 2.41382048,19.5719142 2.71791023,19.5719142 C3.01318579,19.5719142 3.16253744,19.3794709 3.16253744,19.0327792 L3.16253744,17.8947686 L3.61206143,17.8947686 L3.61206143,19.0283721 C3.61206143,19.3833883 3.81723632,19.5719142 4.11251188,19.5719142 C4.41611196,19.5719142 4.56154619,19.3794709 4.56154619,19.0327792 L4.56154619,17.8947686 L5.01107017,17.8947686 L5.01107017,17.8947686 Z" id="path3808" fill="#FFFFFF" transform="translate(13.457518, 19.272721) scale(-1, 1) rotate(-180.000000) translate(-13.457518, -19.272721) "></path>
                    <path d="M25.1593032,12.8485121 L25.1593032,13.1535121 L25.0814445,13.1535121 L24.9913438,12.9440121 L24.9017328,13.1535121 L24.8233844,13.1535121 L24.8233844,12.8485121 L24.878718,12.8485121 L24.878718,13.0785121 L24.9629425,12.8800121 L25.0202348,12.8800121 L25.1044593,13.0790121 L25.1044593,12.8485121 L25.1593032,12.8485121 Z M24.6652186,12.8485121 L24.6652186,13.1015121 L24.7651128,13.1015121 L24.7651128,13.1530121 L24.5104805,13.1530121 L24.5104805,13.1015121 L24.6103747,13.1015121 L24.6103747,12.8485121 L24.6652186,12.8485121 Z" id="path3818" fill="#F79410" transform="translate(25.010480, 13.348512) scale(-1, 1) rotate(-180.000000) translate(-25.010480, -13.348512) "></path>
                    <polygon id="path3810" fill="#FF5F00" points="16.3084404 15.1310755 9.56949802 15.1310755 9.56949802 3.0203705 16.3084404 3.0203705"></polygon>
                    <path d="M9.9970061,9.0759698 C9.9970061,11.532682 11.1472587,13.721051 12.9384991,15.1313223 C11.6286117,16.1625832 9.97546029,16.7781079 8.17883338,16.7781079 C3.92549423,16.7781079 0.477674643,13.3297986 0.477674643,9.0759698 C0.477674643,4.82214098 3.92549423,1.37383171 8.17883338,1.37383171 C9.97546029,1.37383171 11.6286117,1.98935639 12.9384991,3.02061729 C11.1472587,4.43088862 9.9970061,6.61925757 9.9970061,9.0759698" id="path3814" fill="#EB001B" transform="translate(6.708087, 9.075970) scale(-1, 1) rotate(-180.000000) translate(-6.708087, -9.075970) "></path>
                    <path d="M25.3997937,9.0759698 C25.3997937,4.82214098 21.9519741,1.37383171 17.6986349,1.37383171 C15.902008,1.37383171 14.2488566,1.98935639 12.9384795,3.02061729 C14.7302097,4.43088862 15.8804622,6.61925757 15.8804622,9.0759698 C15.8804622,11.532682 14.7302097,13.721051 12.9384795,15.1313223 C14.2488566,16.1625832 15.902008,16.7781079 17.6986349,16.7781079 C21.9519741,16.7781079 25.3997937,13.3297986 25.3997937,9.0759698" id="path3822" fill="#F79E1B" transform="translate(19.169137, 9.075970) scale(-1, 1) rotate(-180.000000) translate(-19.169137, -9.075970) "></path>
                </g>
            </g>
        </g>
    </g>
</svg>