<?xml version="1.0" encoding="UTF-8"?>
<svg width="82px" height="20px" viewBox="0 0 82 20" version="1.1" xmlns="http://www.w3.org/2000/svg" xmlns:xlink="http://www.w3.org/1999/xlink">
    <!-- Generator: Sketch 46.2 (44496) - http://www.bohemiancoding.com/sketch -->
    <title>PayPal-logo</title>
    <desc>Created with Sketch.</desc>
    <defs></defs>
    <g id="Symbols" stroke="none" stroke-width="1" fill="none" fill-rule="evenodd">
        <g id="footer" transform="translate(-701.000000, -81.000000)">
            <g id="Pay-systems" transform="translate(633.000000, 80.000000)">
                <g id="PayPal-logo" transform="translate(68.000000, 1.000000)">
                    <path d="M30.4680106,4.82758621 L25.9053072,4.82758621 C25.5930415,4.82758621 25.3274943,5.04979385 25.2787203,5.35180589 L23.4333445,16.811424 C23.3967173,17.0376585 23.5755552,17.2413793 23.8097077,17.2413793 L25.9879052,17.2413793 C26.3001709,17.2413793 26.5657181,17.0193547 26.6144921,16.7167935 L27.1121362,13.6258376 C27.1601627,13.3232764 27.4262706,13.1010688 27.7379756,13.1010688 L29.1823209,13.1010688 C32.1878074,13.1010688 33.9223672,11.6764871 34.3755355,8.85368127 C34.5796014,7.61854354 34.3841317,6.64826122 33.7936114,5.96864261 C33.1451604,5.22239831 31.994954,4.82758621 30.4680106,4.82758621 Z M30.9942464,9.01310702 C30.7447702,10.6166994 29.493839,10.6166994 28.2843937,10.6166994 L27.5957649,10.6166994 L28.0788329,7.62183822 C28.1076114,7.44081403 28.2675751,7.30756266 28.4544486,7.30756266 L28.7700779,7.30756266 C29.5940032,7.30756266 30.3712101,7.30756266 30.7728013,7.76753615 C31.0123731,8.04190951 31.0856275,8.44971728 30.9942464,9.01310702 L30.9942464,9.01310702 Z" id="Fill-1" fill="#28356A"></path>
                    <path d="M43.734924,8.48382607 L41.6269586,8.48382607 C41.4473885,8.48382607 41.2921577,8.62146043 41.2645731,8.80843898 L41.1711822,9.42665924 L41.0238843,9.20262529 C40.5675671,8.50802552 39.5498229,8.27586207 38.5342422,8.27586207 C36.2046988,8.27586207 34.2151848,10.1259855 33.8277388,12.7211872 C33.6263535,14.0156686 33.912656,15.2536216 34.6130876,16.1168612 C35.2554653,16.9105275 36.1745902,17.2413793 37.2680567,17.2413793 C39.145069,17.2413793 40.1857102,15.9758238 40.1857102,15.9758238 L40.0917785,16.5900739 C40.0564414,16.8248841 40.2289801,17.0354949 40.453623,17.0354949 L42.3522703,17.0354949 C42.6542582,17.0354949 42.90919,16.8059783 42.9567869,16.4934651 L44.0960474,8.92792375 C44.1321057,8.69500406 43.9601078,8.48382607 43.734924,8.48382607 Z M40.796537,12.7860341 C40.5931685,14.0487537 39.6374445,14.8964906 38.418315,14.8964906 C37.8062261,14.8964906 37.3170959,14.6906063 37.0028483,14.3005792 C36.691305,13.913199 36.5730339,13.3617163 36.6720138,12.7474663 C36.8620408,11.495523 37.8338107,10.6199945 39.0343702,10.6199945 C39.6329372,10.6199945 40.1195433,10.8287147 40.4401012,11.2219558 C40.7611999,11.6195451 40.8886658,12.1744309 40.796537,12.7860341 L40.796537,12.7860341 Z" id="Fill-2" fill="#28356A"></path>
                    <path d="M55.4425287,8.96551724 L53.2934507,8.96551724 C53.0884195,8.96551724 52.8958255,9.06617737 52.7796839,9.23460689 L49.8157853,13.5481736 L48.5594434,9.40285569 C48.4804305,9.14352483 48.2382706,8.96551724 47.9639202,8.96551724 L45.8523367,8.96551724 C45.5955448,8.96551724 45.4173999,9.21328212 45.4989735,9.45201108 L47.8660685,16.3153332 L45.6407211,19.4193519 C45.4656856,19.6638638 45.6420015,20 45.9443356,20 L48.0906701,20 C48.2944209,20 48.485003,19.9018699 48.600596,19.7368741 L55.7479721,9.54291242 C55.9191667,9.29912335 55.7433996,8.96551724 55.4425287,8.96551724" id="Fill-3" fill="#28356A"></path>
                    <path d="M62.8547113,4.82758621 L58.291232,4.82758621 C57.9796992,4.82758621 57.7141394,5.04979385 57.6653631,5.35180589 L55.8199002,16.811424 C55.7832713,17.0376585 55.9621177,17.2413793 56.194973,17.2413793 L58.5367954,17.2413793 C58.7541395,17.2413793 58.9402743,17.0859804 58.9742869,16.8742059 L59.498118,13.6258376 C59.5461468,13.3232764 59.8124541,13.1010688 60.1239869,13.1010688 L61.5678397,13.1010688 C64.5740287,13.1010688 66.3081097,11.6764871 66.76186,8.85368127 C66.966683,7.61854354 66.7698959,6.64826122 66.1793478,5.96864261 C65.5314268,5.22239831 64.3819136,4.82758621 62.8547113,4.82758621 Z M63.3811588,9.01310702 C63.1322316,10.6166994 61.8812413,10.6166994 60.6709914,10.6166994 L59.9832645,10.6166994 L60.4669159,7.62183822 C60.4955089,7.44081403 60.6543589,7.30756266 60.8418019,7.30756266 L61.1574461,7.30756266 C61.9806627,7.30756266 62.7586538,7.30756266 63.1602639,7.76753615 C63.3998471,8.04190951 63.4725443,8.44971728 63.3811588,9.01310702 L63.3811588,9.01310702 Z" id="Fill-4" fill="#298FC2"></path>
                    <path d="M76.1192499,8.48382607 L74.0124187,8.48382607 C73.8315756,8.48382607 73.6777778,8.62146043 73.6507325,8.80843898 L73.5573359,9.42665924 L73.4093078,9.20262529 C72.952963,8.50802552 71.9358782,8.27586207 70.9200557,8.27586207 C68.5905513,8.27586207 66.6016377,10.1259855 66.2141683,12.7211872 C66.0133116,14.0156686 66.2983694,15.2536216 66.9986632,16.1168612 C67.6425223,16.9105275 68.5602605,17.2413793 69.6539736,17.2413793 C71.5309195,17.2413793 72.5718041,15.9758238 72.5718041,15.9758238 L72.4778667,16.5900739 C72.4425274,16.8248841 72.6148963,17.0354949 72.8409953,17.0354949 L74.7392168,17.0354949 C75.0397806,17.0354949 75.29599,16.8059783 75.3430489,16.4934651 L76.4829194,8.92792375 C76.5177177,8.69500406 76.3451685,8.48382607 76.1192499,8.48382607 Z M73.1808649,12.7860341 C72.9787462,14.0487537 72.0215218,14.8964906 70.8023183,14.8964906 C70.1914545,14.8964906 69.7010325,14.6906063 69.3867658,14.3005792 C69.0753839,13.913199 68.9581874,13.3617163 69.0559112,12.7474663 C69.2472119,11.495523 70.2177786,10.6199945 71.4184109,10.6199945 C72.0170142,10.6199945 72.5036499,10.8287147 72.8242272,11.2219558 C73.1466075,11.6195451 73.2740812,12.1744309 73.1808649,12.7860341 L73.1808649,12.7860341 Z" id="Fill-5" fill="#298FC2"></path>
                    <path d="M79.0868718,5.14257998 L77.1813325,16.811443 C77.1440622,17.0376675 77.32585,17.2413793 77.5627826,17.2413793 L79.4785903,17.2413793 C79.7970992,17.2413793 80.0671188,17.0193645 80.1159885,16.7168168 L81.9950963,5.25825463 C82.0325568,5.03203016 81.8505788,4.82758621 81.6136462,4.82758621 L79.4685121,4.82758621 C79.2791181,4.8281353 79.1161556,4.9615638 79.0868718,5.14257998" id="Fill-6" fill="#298FC2"></path>
                    <path d="M4.87556593,19.3103448 L5.2284089,17.1114844 L4.44240252,17.0934989 L0.68907563,17.0934989 L3.29750553,0.867099261 C3.30563207,0.81796375 3.33190158,0.772351163 3.3702664,0.739903185 C3.40882021,0.707455206 3.45795742,0.689655172 3.5093625,0.689655172 L9.83804617,0.689655172 C11.9392289,0.689655172 13.3891545,1.11852474 14.1460566,1.96513885 C14.5009784,2.36230211 14.7270096,2.77745082 14.8364344,3.23413294 C14.9511509,3.71343594 14.9530408,4.28600369 14.8411591,4.98446961 L14.8330326,5.03527387 L14.8330326,5.48287056 L15.1879544,5.68015427 C15.4867464,5.83571915 15.724306,6.01371949 15.9064916,6.21749279 C16.2100084,6.55717677 16.4063682,6.98882759 16.4893345,7.50039315 C16.5751357,8.02660666 16.5467873,8.65294535 16.4063682,9.36198003 C16.2444044,10.1774441 15.9826543,10.8877767 15.6290554,11.4688736 C15.3039938,12.004358 14.8897293,12.4486172 14.3977903,12.7927512 C13.9281519,13.1198268 13.3702556,13.3681002 12.7394094,13.5270026 C12.1280291,13.6831237 11.4310367,13.7619259 10.6665751,13.7619259 L10.1740691,13.7619259 C9.82198208,13.7619259 9.4799115,13.8863407 9.21135775,14.1093974 C8.94204804,14.3370895 8.76402015,14.6482193 8.70940225,14.9884595 L8.67217137,15.1864849 L8.04869577,19.0622569 L8.02053636,19.2044717 C8.01297679,19.249528 8.00012552,19.2719635 7.9812266,19.2871677 C7.96440655,19.301074 7.94021593,19.3103448 7.91659227,19.3103448 L4.87556593,19.3103448" id="Fill-7" fill="#28356A"></path>
                    <path d="M15.5194376,4.82758621 C15.5007117,4.94822995 15.4789593,5.0715169 15.4547479,5.19820227 C14.6194568,9.47907271 11.7615731,10.9579498 8.11171395,10.9579498 L6.25330461,10.9579498 C5.80690807,10.9579498 5.43068657,11.2813656 5.36126813,11.720894 L4.14029792,19.4513447 C4.09509081,19.7400212 4.31791078,20 4.60958175,20 L7.90572843,20 C8.2959471,20 8.62752894,19.7169875 8.68900304,19.3327778 L8.72134787,19.1656891 L9.34195256,15.2346666 L9.38186344,15.019056 C9.44258093,14.6335247 9.77491938,14.3503234 10.1651381,14.3503234 L10.6580658,14.3503234 C13.8515034,14.3503234 16.3515132,13.0562824 17.0822038,9.31122876 C17.3873045,7.74682493 17.2293634,6.44051186 16.4216883,5.52180693 C16.1773051,5.24483608 15.8740959,5.01487665 15.5194376,4.82758621" id="Fill-8" fill="#298FC2"></path>
                    <path d="M14.1850619,4.80346264 C14.0617754,4.76666667 13.9346534,4.73341954 13.8042438,4.7033477 C13.6731036,4.67402299 13.5388584,4.64806034 13.4005949,4.62527299 C12.9167642,4.54533046 12.3865413,4.50741379 11.8186931,4.50741379 L7.02476906,4.50741379 C6.90659674,4.50741379 6.79445176,4.53468391 6.6941788,4.58399425 C6.47299382,4.69270115 6.30879457,4.90675287 6.26897762,5.16880747 L5.24907928,11.7745259 L5.21985583,11.9670977 C5.28688711,11.5322701 5.6501711,11.2123132 6.08121697,11.2123132 L7.87571935,11.2123132 C11.4000672,11.2123132 14.159674,9.74850575 14.9662412,5.51416667 C14.9903505,5.38883621 15.0106243,5.26686782 15.0287063,5.14751437 C14.8246901,5.03675287 14.6036878,4.9420546 14.3656993,4.86136494 C14.3068871,4.84137931 14.2462485,4.8221408 14.1850619,4.80346264" id="Fill-9" fill="#22284F"></path>
                    <path d="M6.26897762,5.16880747 C6.30879457,4.90675287 6.47299382,4.69270115 6.6941788,4.58474138 C6.79518234,4.53524425 6.90659674,4.50797414 7.02476906,4.50797414 L11.8186931,4.50797414 C12.3865413,4.50797414 12.9167642,4.54607759 13.4005949,4.62602011 C13.5388584,4.64862069 13.6731036,4.67477011 13.8042438,4.70409483 C13.9346534,4.73397989 14.0617754,4.76741379 14.1850619,4.80402299 C14.2462485,4.82270115 14.3068871,4.84212644 14.3662472,4.86136494 C14.6042357,4.9420546 14.8254207,5.0375 15.0294369,5.14751437 C15.2694344,3.58247126 15.0274278,2.51688218 14.2000389,1.55196839 C13.2877193,0.489554598 11.6413433,0.0349281609 9.53451534,0.0349281609 L3.41804759,0.0349281609 C2.98773231,0.0349281609 2.62061274,0.354885057 2.55412939,0.79045977 L0.00657527589,17.3043822 C-0.0436525261,17.6310632 0.202737673,17.9258046 0.524926192,17.9258046 L4.30096102,17.9258046 L6.26897762,5.16880747" id="Fill-11" fill="#28356A"></path>
                </g>
            </g>
        </g>
    </g>
</svg>