<?xml version="1.0" encoding="UTF-8"?>
<svg width="20px" height="20px" viewBox="0 0 20 20" version="1.1" xmlns="http://www.w3.org/2000/svg" xmlns:xlink="http://www.w3.org/1999/xlink">
    <!-- Generator: Sketch 46.2 (44496) - http://www.bohemiancoding.com/sketch -->
    <title>if_pen_622400</title>
    <desc>Created with Sketch.</desc>
    <defs></defs>
    <g id="Symbols" stroke="none" stroke-width="1" fill="none" fill-rule="evenodd">
        <g id="contact-form" transform="translate(-855.000000, -152.000000)" fill="#000000">
            <g id="Coctact-info" transform="translate(852.000000, 4.000000)">
                <g id="if_pen_622400" transform="translate(3.000000, 148.000000)">
                    <path d="M19.4322946,3.60072234 L16.399317,0.567746941 C16.0332198,0.20161036 15.546462,4.26325641e-14 15.0286929,4.26325641e-14 C14.510971,4.26325641e-14 14.0242131,0.20161036 13.6581159,0.56773515 L0.961990333,13.2638109 C0.841482944,13.3843196 0.763801665,13.5410399 0.740902902,13.7099171 L0.00708129235,19.1161476 C-0.0256278561,19.3572594 0.0561450151,19.5997743 0.228204097,19.7718117 C0.375277352,19.9188866 0.573843344,20 0.779024271,20 C0.813832276,20 0.848864317,19.9976771 0.883860983,19.9929133 L6.29004414,19.2591191 C6.45894314,19.2361847 6.6156617,19.1585497 6.73616909,19.0380056 L19.4322946,6.34196527 C19.7984036,5.97586406 20,5.48908907 20,4.97136149 C20,4.45358676 19.7983918,3.96682355 19.4322946,3.60072234 Z M18.330501,5.24017138 L15.9187496,7.65191378 L12.3480874,4.08124787 L14.759827,1.66951725 C14.8567517,1.57261504 14.9698777,1.55813513 15.0286929,1.55813513 C15.087508,1.55813513 15.200634,1.57261504 15.2975706,1.66951725 L18.3305482,4.70249266 C18.4274375,4.79938307 18.4418937,4.91252212 18.4418937,4.97132612 C18.4418937,5.03013012 18.4274257,5.14326917 18.330501,5.24017138 Z" id="Shape" fill-rule="nonzero"></path>
                    <polygon id="Path" points="5.82017144 17.7504609 1.68871356 18.3112391 2.2495092 14.179795 11.2463291 5.18301818 14.816956 8.75369589"></polygon>
                </g>
            </g>
        </g>
    </g>
</svg>