<?xml version="1.0" encoding="UTF-8"?>
<svg width="16px" height="16px" viewBox="0 0 16 16" version="1.1" xmlns="http://www.w3.org/2000/svg" xmlns:xlink="http://www.w3.org/1999/xlink">
    <!-- Generator: Sketch 46.2 (44496) - http://www.bohemiancoding.com/sketch -->
    <title>Page 1</title>
    <desc>Created with Sketch.</desc>
    <defs></defs>
    <g id="Page-1" stroke="none" stroke-width="1" fill="none" fill-rule="evenodd">
        <g id="Home-page" transform="translate(-950.000000, -376.000000)" fill="#FFFFFF">
            <g id="Top-section">
                <g id="search-field" transform="translate(352.000000, 351.000000)">
                    <g id="Page-1" transform="translate(598.000000, 25.000000)">
                        <path d="M1.33393014,5.99542867 C1.33727421,8.58124135 3.427473,10.6680079 6.00640578,10.660225 C8.58383841,10.6524733 10.6645676,8.56433142 10.6590045,5.99102146 C10.6534102,3.41289795 8.57402498,1.33691496 5.99427962,1.33403933 C3.42387891,1.3311637 1.33061732,3.42490056 1.33393014,5.99542867 M9.77335779,10.6733216 C6.98706155,12.8918669 3.16794832,12.1575821 1.2488908,9.67119728 C-0.586627521,7.29302353 -0.383045659,3.89378384 1.7551577,1.7553185 C3.90158059,-0.391367375 7.31081109,-0.587597576 9.69422527,1.26883764 C12.157147,3.18719258 12.8854038,6.98992632 10.674881,9.77087522 C10.7510758,9.83413898 10.8369277,9.8946209 10.9101847,9.96776181 C12.5206191,11.5761743 14.1288345,13.186806 15.7400503,14.7944684 C15.933975,14.987948 16.0470795,15.2046201 15.9811044,15.4805552 C15.8562801,16.0026063 15.2417841,16.1744874 14.8501844,15.7950924 C14.5098395,15.4653644 14.1789018,15.1258217 13.8437449,14.7907176 C12.5178688,13.4649291 11.1917114,12.1393281 9.86702295,10.8123206 C9.82701915,10.7722494 9.80223554,10.7169873 9.77335779,10.6733216" id="Fill-1"></path>
                    </g>
                </g>
            </g>
        </g>
    </g>
</svg>