<?xml version="1.0" encoding="UTF-8"?>
<svg width="26px" height="20px" viewBox="0 0 26 20" version="1.1" xmlns="http://www.w3.org/2000/svg" xmlns:xlink="http://www.w3.org/1999/xlink">
    <!-- Generator: Sketch 46.2 (44496) - http://www.bohemiancoding.com/sketch -->
    <title>icon twitter</title>
    <desc>Created with Sketch.</desc>
    <defs></defs>
    <g id="Page-1" stroke="none" stroke-width="1" fill="none" fill-rule="evenodd">
        <g id="About-Artist" transform="translate(-1234.000000, -263.000000)" fill-rule="nonzero" fill="#000000">
            <g id="icons-social" transform="translate(1234.000000, 263.000000)">
                <g id="icon-twitter">
                    <path d="M25.6431373,2.35 C24.7254902,2.75 23.7058824,3 22.6862745,3.15 C23.7568627,2.55 24.572549,1.55 24.9294118,0.35 C23.9098039,0.95 22.8392157,1.35 21.6666667,1.6 C20.6980392,0.6 19.372549,0 17.8941176,0 C15.0392157,0 12.745098,2.25 12.745098,5.05 C12.745098,5.45 12.7960784,5.85 12.8980392,6.2 C8.61568627,6 4.79215686,4 2.24313725,0.9 C1.83529412,1.65 1.58039216,2.55 1.58039216,3.45 C1.58039216,5.2 2.49803922,6.75 3.8745098,7.65 C3.00784314,7.6 2.24313725,7.4 1.52941176,7 C1.52941176,7 1.52941176,7.05 1.52941176,7.05 C1.52941176,9.5 3.31372549,11.55 5.65882353,12 C5.25098039,12.1 4.79215686,12.2 4.28235294,12.2 C3.9254902,12.2 3.61960784,12.15 3.31372549,12.1 C3.97647059,14.1 5.8627451,15.55 8.10588235,15.6 C6.32156863,16.95 4.12941176,17.75 1.68235294,17.75 C1.2745098,17.75 0.866666667,17.75 0.458823529,17.7 C2.80392157,19.2 5.50588235,20 8.41176471,20 C17.8941176,20 23.0941176,12.3 23.0941176,5.6 C23.0941176,5.4 23.0941176,5.15 23.0941176,4.95 C24.0627451,4.25 24.9294118,3.4 25.6431373,2.35 Z" id="Shape"></path>
                </g>
            </g>
        </g>
    </g>
</svg>