<?xml version="1.0" encoding="UTF-8"?>
<svg width="205px" height="37px" viewBox="0 0 205 37" version="1.1" xmlns="http://www.w3.org/2000/svg" xmlns:xlink="http://www.w3.org/1999/xlink">
    <!-- Generator: Sketch 46.2 (44496) - http://www.bohemiancoding.com/sketch -->
    <title>Storyboards logo</title>
    <desc>Created with Sketch.</desc>
    <defs></defs>
    <g id="Symbols" stroke="none" stroke-width="1" fill="none" fill-rule="evenodd">
        <g id="footer" transform="translate(-150.000000, -36.000000)" fill-rule="nonzero" fill="#FFFFFF">
            <g id="Storyboards-logo" transform="translate(150.000000, 36.000000)">
                <path d="M204.959407,25.5989318 C204.942664,31.1321661 202.167743,35.252463 197.328522,36.482713 C190.552327,38.2049474 185.069655,35.4528797 183.195372,28.4947599 C183.010221,27.807562 183.238204,27.4633849 183.920204,27.3221297 C184.711814,27.1583276 185.496221,26.9609943 186.282965,26.7742599 C186.911814,26.6249109 187.14369,26.9184057 187.257584,27.5040464 C187.522363,28.8672651 187.940363,30.1607234 188.936009,31.2264005 C190.490611,32.8898589 192.450168,33.4876401 194.637708,33.3309682 C197.256487,33.1432703 199.295673,31.9087807 200.325779,29.4650464 C201.389177,26.942687 201.37146,24.3779318 199.491531,22.2219109 C198.633726,21.2381349 197.419442,20.4800203 196.234558,19.8726036 C194.199071,18.8296661 192.020097,18.0628797 189.974681,17.0367078 C187.597513,15.8440359 185.609336,14.1306661 184.889372,11.5021245 C183.600133,6.79541615 185.929212,2.81868698 190.339726,1.10666615 C195.379088,-0.849323437 200.128558,0.279176563 203.140611,4.51567656 C203.592876,5.15180677 203.57477,5.5318276 202.874274,5.86656198 C202.787248,5.90818698 202.709566,5.96946823 202.624876,6.01629635 C202.004788,6.35758281 201.340504,7.01953594 200.776487,6.9445724 C200.241088,6.87346302 199.848788,5.98681198 199.326628,5.53452552 C197.477655,3.93311927 195.320876,3.50434323 192.977195,4.11349427 C191.393584,4.52511927 190.039319,5.36841094 189.260752,6.84128073 C187.963726,9.29522865 188.68077,11.919338 191.171248,13.279088 C193.144823,14.3569057 195.296735,15.1100099 197.328717,16.0903172 C198.662735,16.733963 200.014274,17.4051661 201.199549,18.2756297 C203.817159,20.1977026 205.156239,22.8042755 204.959407,25.5989318" id="Fill-1"></path>
                <path d="M11.2110442,36.9385068 C5.69410619,36.9284859 2.09778761,34.4600849 0.387238938,29.8661109 C0.186902655,29.328262 0.0367964602,28.7512932 0.000584070796,28.1837672 C-0.0155752212,27.9293922 0.254265487,27.4900172 0.485362832,27.416788 C1.37626549,27.134663 2.30065487,26.9517828 3.21900885,26.7615797 C3.74876106,26.6519286 3.93683186,26.9471578 4.05247788,27.4402984 C4.38968142,28.8752047 4.74946903,30.2991266 5.88256637,31.3946734 C8.01987611,33.4614703 10.601469,33.8231839 13.2681416,32.9723766 C15.8033982,32.1635797 17.264354,30.233413 17.6406903,27.5732672 C18.191469,23.6815224 16.3033628,21.3703714 12.9790265,19.8023036 C10.4435752,18.6063557 7.80046018,17.585387 5.40538053,16.1578036 C1.70373451,13.9512932 0.397946903,9.9244599 1.96617699,6.04620469 C3.06617699,3.32574115 5.2260708,1.51197031 8.0179292,0.740944271 C10.9343894,-0.0645765625 13.9828496,-0.209300521 16.6623717,1.5464651 C17.9286372,2.37626719 18.9289558,3.6090224 20.028177,4.68067344 C20.4664248,5.10810052 20.2962655,5.48503802 19.8130442,5.76851198 C19.7571681,5.8012724 19.7024602,5.83576719 19.6463894,5.86794948 C18.9745133,6.25394427 18.2749912,6.97660052 17.6387434,6.92572552 C17.0589558,6.87947552 16.554708,5.9862724 16.0050973,5.47906406 C14.2569735,3.86609531 12.1531504,3.52037656 9.93738053,4.0599599 C7.65015929,4.61669427 6.01768142,5.97336094 5.46690265,8.37566302 C5.05941593,10.1526266 6.06129204,12.3234859 8.03759292,13.3357828 C10.0429027,14.3629182 12.1745664,15.1453141 14.217646,16.1044234 C16.9970442,17.4092516 19.7840354,18.8530224 20.938354,21.8887568 C22.6307965,26.3389703 21.9994159,30.478538 18.4998584,33.9501786 C16.3456106,36.0871214 13.6760177,36.9988245 11.2110442,36.9385068" id="Fill-4"></path>
                <path d="M46.5545692,4.52610714 C41.9129664,4.34803537 38.765226,8.45947664 38.6304458,12.1105187 C38.4593417,16.7470434 41.9871434,20.586811 46.479054,20.5790109 C50.918582,20.5712107 54.3355005,17.0976697 54.3985892,12.5705374 C54.4595749,8.18475908 50.9782294,4.40282668 46.5545692,4.52610714 M46.4635686,23.9989021 C40.6775763,24.083372 35.0380261,19.2851368 35.0001729,12.585567 C34.9653786,6.43714446 40.186632,1.09232788 46.3861417,1.00119927 C52.6820048,0.908548681 57.9629057,6.19667147 57.999803,12.5465662 C58.0367003,18.8509918 52.8850355,23.965038 46.4635686,23.9989021" id="Fill-7"></path>
                <path d="M125.375488,12.4657468 C125.459152,8.26401866 121.94797,4.43240469 117.452123,4.498972 C113.207456,4.56173545 109.641072,7.80717677 109.684814,12.5897522 C109.726454,17.1288815 113.113096,20.6054065 117.479246,20.5725032 C121.979296,20.5384588 125.396118,17.0305521 125.375488,12.4657468 M117.442763,23.9963449 C111.047493,24.0009095 105.9958,18.9164989 106.000003,12.4796309 C106.004205,6.23276495 111.267539,0.994488775 117.574561,1.00000435 C123.600033,1.00551993 128.97931,6.35619975 128.99994,12.5543764 C129.021333,18.9357083 123.343504,24.1580083 117.442763,23.9963449" id="Fill-9"></path>
                <path d="M169.62846,11.9982903 C169.62846,14.1926462 169.60425,16.3875672 169.654182,18.5807929 C169.661748,18.9174153 170.03624,19.5458273 170.199844,19.5328295 C171.816969,19.4022871 173.545874,19.4680293 175.009419,18.890478 C177.540267,17.8919132 178.959176,15.8322439 179.273901,13.0520483 C179.673926,9.52024477 178.121486,6.33316368 175.084885,5.22101007 C173.704938,4.71560558 172.133585,4.72784982 170.648478,4.50896051 C169.86961,4.39424141 169.601224,4.72766145 169.615977,5.50959736 C169.65683,7.6717415 169.630162,9.83520426 169.62846,11.9982903 L169.62846,11.9982903 Z M166.000047,11.9606157 C166.000047,8.759595 165.999858,5.55838594 166.000236,2.35736524 C166.000426,1.13294139 166.122419,0.953233643 167.344436,1.00880365 C169.824406,1.12182739 172.339177,1.08923888 174.77035,1.51175929 C178.381172,2.13885268 180.879299,4.41251358 182.174134,7.79399552 C183.325792,10.801934 183.3065,13.9270404 181.904424,16.8556739 C180.434259,19.9259638 177.991549,22.0913103 174.557759,22.6132916 C171.994001,23.0028467 169.35421,22.9033858 166.747329,22.9990793 C166.009693,23.0260166 166.010639,22.4569421 166.010072,21.9404236 C166.007045,18.6137582 166.008558,15.2870927 166.008558,11.9606157 L166.000047,11.9606157 Z" id="Fill-11"></path>
                <path d="M95.4785573,7.38424267 L95.474213,7.38424267 C95.474213,8.13436991 95.4468248,8.88619043 95.4906459,9.63368367 C95.5040567,9.86227774 95.6625305,10.2133531 95.8414038,10.2810847 C97.5625165,10.932813 99.4770465,9.70141524 99.6379758,7.87586105 C99.8531149,5.4335732 98.6533226,4.27517506 96.1553293,4.46576419 C95.6164428,4.50696757 95.4558912,4.73104621 95.472513,5.2279326 C95.4963124,5.94588734 95.4785573,6.66534722 95.4785573,7.38424267 M95.4761018,16.557168 C95.4761018,17.308236 95.4932903,18.0596802 95.4702464,18.8099956 C95.4549468,19.3066939 95.6154984,19.6176947 96.1543849,19.5699063 C97.2720126,19.4709429 98.4087176,19.4449792 99.4983904,19.2094238 C100.78828,18.9305954 101.595571,17.6734221 101.543628,16.3300791 C101.498296,15.1556888 100.463777,13.8416962 99.2841958,13.6462153 C98.2685655,13.4780152 97.2255471,13.472559 96.1944284,13.3973017 C95.6772635,13.3596731 95.4570245,13.59203 95.472513,14.1167616 C95.4965013,14.9295406 95.4787462,15.7436365 95.4761018,16.557168 M101.613515,11.0993198 C101.881542,11.2882156 102.101781,11.452841 102.330898,11.6037319 C104.444512,12.9961803 105.250103,15.0119473 104.933533,17.4346683 C104.599963,19.9870199 103.175588,21.8989319 100.647373,22.466372 C98.5951463,22.9267586 96.420145,22.918104 94.2959535,22.9660805 C91.7800162,23.023088 92.0062995,23.2731304 92.0045995,20.7350776 C92.0006329,14.7218304 92.0030884,8.70858318 92.0061106,2.69533598 C92.007055,1.00675009 92.0144215,0.949366387 93.7548003,1.01690982 C95.4115034,1.08144297 97.0908727,1.13882667 98.7109323,1.45208522 C102.732843,2.23005766 104.24845,7.47605659 102.073826,10.4543646 C101.930463,10.6507862 101.791067,10.8502181 101.613515,11.0993198" id="Fill-13"></path>
                <path d="M62.5129656,7.64662558 L62.4906132,7.64662558 C62.4906132,8.4589018 62.4451571,9.27550565 62.5152197,10.0817608 C62.5400139,10.3666314 62.8305952,10.847374 63.0278223,10.8620503 C64.1738056,10.9470975 65.3265511,10.9937606 66.3891355,10.3544011 C67.7094301,9.56018805 67.824761,8.33358886 67.6880168,7.00124513 C67.5638577,5.79007486 66.9663535,5.07752215 65.7260768,4.80864499 C64.9106836,4.63158872 64.0631706,4.59997825 63.2291817,4.51399024 C62.7255952,4.46224691 62.4838512,4.6658334 62.5048887,5.21149034 C62.5362572,6.02207314 62.5129656,6.83472568 62.5129656,7.64662558 M66.7086434,13.7999425 C68.8268625,16.777536 70.9135251,19.710348 73,22.64316 C72.9445886,22.737427 72.8889893,22.8318821 72.8335779,22.9263372 C71.6100186,22.9263372 70.3791336,22.9993423 69.1670322,22.8802386 C68.8195369,22.8459939 68.4778644,22.2901764 68.2165855,21.9153666 C66.5709601,19.5554944 64.9501291,17.1781235 63.3163373,14.8097842 C63.1805324,14.6129714 63.0088509,14.4409953 62.590166,14.2904693 C62.5644325,15.4143344 62.5223574,16.5381996 62.5172858,17.6620647 C62.5107116,19.0711768 62.5302465,20.480477 62.5469638,21.8894008 C62.5559799,22.6542613 62.2657743,23.0200396 61.4287801,22.9991542 C58.6589603,22.9301003 59.0190406,23.367943 59.0117151,20.6289333 C58.9955612,14.5183281 59.0053287,8.40753479 59.0100245,2.29692962 C59.0107759,1.06525018 59.0795236,0.950474067 60.2687091,1.01350685 C62.3238155,1.12245008 64.3915068,1.19752495 66.4229459,1.49820075 C68.8537229,1.85795802 70.8592407,4.02440425 71.1661637,6.32594762 C71.5743298,9.38444888 70.4362356,11.8833695 68.0787143,13.1020661 C67.6656644,13.3156249 67.2499848,13.5244798 66.7086434,13.7999425" id="Fill-15"></path>
                <path d="M153.558417,7.9782367 L153.558417,9.05483662 C153.558417,11.5839733 153.558417,11.5839733 156.03787,11.2782794 C157.632897,11.0816777 158.759799,9.94052498 158.903602,8.3767376 C159.061173,6.66441984 158.362429,5.36237554 156.967426,5.00625583 C156.113405,4.7882674 155.213107,4.76001328 154.332696,4.65307926 C153.765516,4.58420983 153.526482,4.83280689 153.550194,5.43418811 C153.583468,6.28083084 153.558608,7.13002429 153.558417,7.9782367 M157.778803,14.3050026 C158.653285,15.5638809 159.469061,16.7491807 160.295928,17.9260435 C161.411165,19.513376 162.545525,21.0863852 163.644508,22.685294 C163.832294,22.9582211 163.884881,23.3288602 164,23.6545675 C163.681989,23.7438427 163.369141,23.8666697 163.045393,23.9172917 C161.048216,24.2300491 159.613055,23.6932207 158.5636,21.6634365 C157.439375,19.4888499 155.86653,17.5577588 154.480132,15.5269935 C154.288714,15.2466106 154.044708,15.0038998 153.627641,14.5100412 C153.593794,15.1430121 153.561094,15.4795109 153.560329,15.8164021 C153.554592,18.136576 153.532601,20.4573385 153.566831,22.7769237 C153.579069,23.6039456 153.332004,23.95516 152.476835,23.9333808 C149.612824,23.860391 150.024728,24.2971527 150.015932,21.4672273 C149.996044,15.0947446 150.008665,8.7220658 150.011151,2.34938695 C150.011725,1.08736933 150.085921,0.950807722 151.296581,1.01182879 C153.38899,1.11719313 155.519261,1.10345849 157.558127,1.52471965 C161.645801,2.3695965 163.066046,6.13014217 162.134769,9.89657412 C161.573517,12.1667146 159.986522,13.5052539 157.778803,14.3050026" id="Fill-17"></path>
                <path d="M137.296144,8.45417419 C137.214883,8.42765806 137.133802,8.40133548 137.052541,8.37481935 C136.123532,10.5363677 135.194523,12.6977226 134.217045,14.9724968 L139.870378,14.9724968 C138.97218,12.6981097 138.134162,10.5760452 137.296144,8.45417419 M137.262991,0.110109677 C137.932,1.64514194 138.528937,2.96456129 139.085694,4.30314194 C140.246054,7.09236774 141.383171,9.89262581 142.533081,12.6868839 C143.924793,16.0677871 145.334523,19.4403677 146.704432,22.8317226 C147.093081,23.7940452 146.971099,23.9643677 145.976505,23.9376581 C143.185333,23.8623677 143.621189,24.5843032 142.480468,21.4056581 C142.297405,20.8956581 141.971279,20.4266903 141.87218,19.9037226 C141.641189,18.6816581 140.937405,18.4759161 139.907315,18.5105613 C137.808937,18.5812065 135.706955,18.5488839 133.607135,18.517529 C133.01236,18.5086258 132.671459,18.7234645 132.439387,19.3170774 C131.941369,20.5917871 131.373441,21.8349484 130.867135,23.1059806 C130.621009,23.7235935 130.248216,24.0023032 129.616505,23.9533355 C129.079207,23.911529 128.536865,23.9512065 127.996865,23.9428839 C127.053622,23.9283677 126.954523,23.7911419 127.330559,22.8818516 C128.170378,20.8523032 129.030559,18.8324323 129.888757,16.8115935 C131.628036,12.7157226 133.367315,8.61946452 135.116324,4.52823871 C135.616324,3.35920645 136.143351,2.20314194 136.673622,1.0494 C136.796324,0.782690323 136.983351,0.550432258 137.262991,0.110109677" id="Fill-19"></path>
                <path d="M80.5027451,9.82547746 C81.4134789,8.1904369 82.2497032,6.71275156 83.0631451,5.22131483 C83.6803227,4.08996812 84.2132803,2.90243716 84.8991784,1.82098837 C85.1430616,1.43653873 85.7027231,1.17152975 86.1622917,1.06721562 C86.7268084,0.939131219 87.3374501,1.03264069 87.9279238,1.037159 C89.1417375,1.04639208 89.2375354,1.19333553 88.6502363,2.28146357 C86.9966485,5.34625605 85.3740597,8.43128272 83.6459625,11.449124 C82.6756584,13.1436885 82.0620289,14.8372707 82.2132888,16.8750306 C82.3580127,18.8251745 82.2222523,20.7969277 82.2497032,22.7586621 C82.2616546,23.6061407 82.0153438,24.0228079 81.1301935,23.9990377 C78.3059291,23.9232085 78.8091949,24.2998003 78.7851054,21.5848825 C78.7662446,19.4595066 78.8153573,17.3311839 78.7167583,15.2103263 C78.6807174,14.4337655 78.4263767,13.6051459 78.0667144,12.9193443 C76.162334,9.28838736 74.1888597,5.69770235 72.2486251,2.08756894 C71.8079174,1.2673966 71.929112,1.05994702 72.8054855,1.03165844 C75.5714869,0.942077946 75.5806372,0.93638094 76.9315185,3.383343 C77.9445861,5.2183681 78.9283354,7.07146645 79.9301986,8.9135637 C80.0670794,9.16521418 80.233652,9.39898785 80.5027451,9.82547746" id="Fill-22"></path>
                <path d="M30.1937673,14.3353798 C30.1932142,17.1510151 30.1721945,19.9670434 30.2059366,22.7822856 C30.216262,23.6373549 30.0138098,24.0279349 29.1243479,23.9984497 C26.551288,23.9127462 26.8033391,24.363869 26.797992,21.5405676 C26.7884041,16.3022359 26.7760505,11.063511 26.8086862,5.82537585 C26.8142177,4.93118954 26.5774704,4.59093091 25.7173253,4.65855019 C24.8009435,4.73049395 23.8744207,4.63967969 22.9549044,4.68449712 C22.2212458,4.72007587 21.9850517,4.39043189 22.0007242,3.64170565 C22.0645206,0.619870924 21.6360153,1.03148362 24.4303344,1.01713418 C27.5628112,1.00101563 30.6956569,1.03600467 33.827765,1.00022936 C34.7017387,0.990204406 35.024224,1.30726805 34.9985948,2.25590361 C34.9233667,5.04559192 35.3092796,4.63358609 32.753736,4.67348933 C32.6003297,4.67584814 32.4467389,4.67506187 32.2931482,4.67545501 C30.1915547,4.67958293 30.192661,4.67958293 30.1939517,6.96880997 C30.1954267,9.42433325 30.1943205,11.8798565 30.1937673,14.3353798" id="Fill-24"></path>
                <path d="M116.857623,37 C115.955187,34.9861301 115.052751,32.9722602 114.150115,30.9581902 C114.085913,30.9595906 114.02151,30.9609909 113.957307,30.9621912 C113.729098,32.1188611 113.494889,33.2743307 113.27608,34.432801 C113.183277,34.9235155 113.111074,35.4188311 113.051471,35.9147468 C112.934067,36.8923749 112.221438,36.8465642 111.552011,36.7405395 C110.804782,36.6221118 111.00259,36.0287734 111.092193,35.5500617 C111.667416,32.4765445 112.246839,29.4036275 112.845263,26.3345114 C112.930666,25.8966092 113.125674,25.480112 113.27008,25.0536125 C113.369884,25.0356083 113.469688,25.0178042 113.569292,25 C114.700937,27.5419931 115.832582,30.0837862 117.060031,32.8412296 C118.311681,30.1391991 119.470327,27.6380155 120.628773,25.1368319 C120.726777,25.1464342 120.824781,25.1560364 120.922785,25.1658387 C121.025589,25.3800887 121.182796,25.5845364 121.222797,25.809789 C121.79422,29.0197379 122.354242,32.2318874 122.904264,35.4454373 C122.997068,35.9871637 123.222677,36.6243123 122.340842,36.7631447 C121.491408,36.896976 120.999588,36.5516954 120.889784,35.6822925 C120.722577,34.3609842 120.55137,33.040076 120.370363,31.7205681 C120.342162,31.51412 120.253559,31.3158737 119.962747,31.0652152 C119.051711,33.0278732 118.140674,34.9903311 117.229638,36.952789 C117.105633,36.9683926 116.981628,36.9841963 116.857623,37" id="Fill-26"></path>
                <path d="M158.000987,32.1478052 C158.000987,30.2622394 157.990182,28.3764737 158.005268,26.4909079 C158.013626,25.4653967 158.389548,25.1538666 159.398461,25.388863 C159.643096,25.4458136 159.995981,25.7929128 159.996796,26.0075268 C160.010659,29.5656431 159.976614,33.1235596 159.95052,36.6816759 C159.95052,36.7086525 159.913009,36.7354293 159.716894,37 C157.103994,34.6414441 154.859676,31.9539732 152.122828,29.3814028 C152.066358,30.0092586 152.010704,30.3559582 152.008054,30.7032572 C151.994395,32.3346433 151.994395,33.9660294 151.991337,35.5976154 C151.990318,36.222274 151.76505,36.6031439 151.039301,36.5995471 C150.306417,36.59615 149.99777,36.2826217 150.000012,35.5696396 C150.010613,32.3064677 149.995527,29.043096 150.014079,25.7801239 C150.015506,25.5195497 150.200409,25.2599747 150.300301,25 C150.557167,25.1354826 150.870707,25.2180111 151.062541,25.4146406 C153.029606,27.4338906 154.984236,29.4651302 156.921537,31.5119563 C157.170045,31.7745287 157.300109,32.1450077 157.485216,32.4655299 C157.657071,32.3596217 157.829131,32.2537134 158.000987,32.1478052" id="Fill-28"></path>
                <path d="M47.3168968,25 C49.869246,27.5554545 52.3206536,30.0096104 54.9929474,32.6850649 C54.9929474,31.1176623 54.9927431,29.867987 54.9929474,28.6183117 C54.9931518,27.8725974 54.9813003,27.1264935 54.9980558,26.3811688 C55.0125636,25.7398701 55.4375805,25.5951299 56.0332172,25.6001948 C56.6523524,25.6052597 57.000335,25.8078571 56.9995177,26.4425325 C56.9964526,29.7191558 57.0031957,32.9957792 56.997883,36.2724026 C56.9976787,36.4237662 56.9145143,36.5749351 56.7892569,37 C53.9849626,34.6775325 51.8275931,31.9522078 48.9924442,29.4746753 C48.9924442,30.2858442 48.9928529,30.8484416 48.9922399,31.411039 C48.9906052,32.8385714 48.9810015,34.2659091 48.9901966,35.6934416 C48.9942833,36.3216883 48.6538611,36.5527273 48.0388125,36.5642208 C47.4529839,36.5751299 47.0038555,36.4331169 47.0026295,35.784026 C46.9969081,32.4105844 47.0005861,29.0369481 47.0130506,25.6635065 C47.0136636,25.5234416 47.1362646,25.3835714 47.3168968,25" id="Fill-30"></path>
                <path d="M32.5264875,34.1556369 C34.6682149,34.1491922 36.1279776,32.6913618 36.1423149,30.5445166 C36.1568409,28.3844028 34.6063382,26.7508595 32.5491253,26.7588206 C30.5002131,26.7665921 28.8916066,28.4225024 28.894059,30.5213915 C28.8965115,32.5526111 30.5047406,34.1615129 32.5264875,34.1556369 M32.4638562,35.99996 C29.4317075,35.9891557 26.9905948,33.5005515 27.0000272,30.4302178 C27.0090824,27.4440444 29.5743258,24.9654864 32.619114,25.0003636 C35.5588249,25.033914 38.0142748,27.5153153 37.9999375,30.4377998 C37.9844683,33.5934311 35.578067,36.0113331 32.4638562,35.99996" id="Fill-32"></path>
                <path d="M171.168124,31.4841462 L171.129018,31.4841462 C171.129018,32.4258228 171.147542,33.3678899 171.12202,34.3087855 C171.106789,34.8683636 171.288531,35.1379998 171.935844,35.1481527 C174.177255,35.1829066 175.914605,33.643774 175.939098,31.5548257 C175.965032,29.3545865 174.408394,27.8519651 172.11635,27.8275592 C171.47974,27.8207255 171.150629,28.0165583 171.16339,28.6585307 C171.181914,29.600012 171.168124,30.5422744 171.168124,31.4841462 M169.009454,31.4829747 C169.008219,29.987968 169.021803,28.4929612 169.00225,26.9983449 C168.993194,26.3026796 169.295342,25.977398 170.042273,26.0012181 C170.966418,26.0308957 171.895296,25.9813029 172.815325,26.0484679 C175.795022,26.2663637 177.852839,28.3020096 177.991976,31.1204009 C178.137904,34.0733176 176.282822,36.3752805 173.298803,36.8311824 C172.292946,36.9846465 171.2521,36.921777 170.229778,36.9930422 C169.35112,37.0541545 168.980227,36.7154008 169.00081,35.8695906 C169.036417,34.4081663 169.010689,32.94518 169.009454,31.4829747" id="Fill-34"></path>
                <path d="M84.9893894,31.4919471 C85.0387543,29.3694229 83.1095815,27.6580508 80.825728,27.8677384 C80.5579544,27.8922118 80.1267373,28.3137407 80.119063,28.5608235 C80.058705,30.5118386 80.0848394,32.4650073 80.0794466,34.4175886 C80.0779947,34.9479749 80.3339456,35.1533552 80.905583,35.1605993 C83.195659,35.1897715 84.9394022,33.639532 84.9893894,31.4919471 L84.9893894,31.4919471 Z M78.0019716,31.4525939 C78.0019716,30.0858066 77.9965788,28.7188235 78.003631,27.3520361 C78.0102683,26.0794222 78.0884639,25.9999328 79.3891674,26.0009117 C80.2505645,26.0016949 81.1163173,25.9862277 81.972529,26.0572983 C84.792552,26.2914593 86.8718937,28.4067394 86.9936466,31.1193649 C87.1222443,33.9866619 85.2876531,36.3797634 82.4898236,36.8240036 C81.3110806,37.0111757 80.0887803,36.9630122 78.8853548,36.9992327 C78.1139761,37.0225314 78.0086089,36.5117237 78.0084015,35.9439421 C78.0075718,34.4467608 78.0079867,32.9497753 78.0079867,31.4525939 L78.0019716,31.4525939 Z" id="Fill-36"></path>
                <path d="M135.608831,31.5900839 L138.296911,31.5900839 C137.830446,30.5860575 137.437261,29.7392013 136.953856,28.6981154 C136.443464,29.7956457 136.062294,30.615135 135.608831,31.5900839 M140.729302,35.99997 C140.56206,35.8408994 140.06526,35.5634286 139.875365,35.1534939 C139.063583,33.4014365 139.096479,33.3871828 137.121492,33.3826217 C137.055895,33.3824316 136.988132,33.3923141 136.924899,33.3805311 C135.371659,33.0905171 134.359148,33.6403275 133.950204,35.1476024 C133.909428,35.2975507 133.842846,35.5276994 133.736079,35.5600077 C133.211504,35.7190783 132.669397,35.823795 132.133396,35.9478967 C132.09853,35.5649489 131.910407,35.1160543 132.052238,34.8091259 C133.506196,31.664773 135.010583,28.5418955 136.514379,25.4190181 C136.598689,25.2436033 136.844725,24.9750647 136.936324,25.0018615 C137.150449,25.0645775 137.399243,25.2449336 137.489069,25.4399234 C138.964301,28.6439516 140.423775,31.8548215 141.869066,35.071773 C142.185033,35.7751426 141.975242,36.0030108 140.729302,35.99997" id="Fill-38"></path>
                <path d="M95.0100803,31.4538372 C95.0100803,29.9897121 95.0293947,28.5253915 95.001938,27.0616573 C94.988115,26.3327223 95.223485,25.9808632 95.980532,26.0008018 C97.3348091,26.0365742 98.6906011,26.0201541 100.045825,26.0092074 C100.657636,26.0043204 100.998477,26.2482761 100.999992,26.9205226 C101.001886,27.5941375 100.664831,27.8466942 100.049612,27.8285148 C99.5457347,27.8134631 99.0410999,27.8289058 98.5368437,27.8291012 C96.8557374,27.8298831 96.8557374,27.8294922 96.8568735,28.9865225 C96.8580097,30.1019161 96.8580097,30.1019161 98.5896742,30.1025025 C99.0308746,30.102698 99.4724538,30.1124718 99.9134649,30.0993749 C100.49441,30.0819774 100.773711,30.3212416 100.781285,30.960257 C100.789238,31.6307442 100.532471,31.9073446 99.8861976,31.8874059 C99.1306655,31.8639486 98.3736185,31.9010893 97.6175183,31.8919019 C97.1149663,31.8860376 96.8407782,32.0930481 96.8602819,32.636475 C96.8625542,32.701569 96.8568735,32.7666629 96.8580097,32.8317569 C96.8975852,35.5574926 96.5427312,35.1182551 99.0121283,35.1585234 C99.3902731,35.1645832 99.7686072,35.1573505 100.146752,35.1604782 C100.657257,35.1645832 101.000749,35.3502867 100.988063,35.9566573 C100.975754,36.5452395 100.813476,36.9956193 100.142397,36.9977695 C98.6928734,37.002461 97.2431606,36.998356 95.7934479,36.997965 C95.1676249,36.997965 94.9968254,36.6118973 95.0000444,36.041299 C95.0091335,34.5122754 95.0030741,32.9830563 95.0030741,31.4538372 L95.0100803,31.4538372 Z" id="Fill-40"></path>
                <path d="M66.9888893,30.0000737 C67.6756621,29.9936978 67.9911848,30.4014316 67.9998074,30.9607169 C68.007951,31.4994029 67.7585347,31.9656647 67.1163119,31.9986889 C66.536044,32.0284433 66.0016035,31.5476313 66.0000067,30.977229 C65.9979309,30.269989 66.4798375,30.0854134 66.9888893,30.0000737" id="Fill-42"></path>
            </g>
        </g>
    </g>
</svg>